<svg version="1.1" id="Layer_1" xmlns="http://www.w3.org/2000/svg" xmlns:xlink="http://www.w3.org/1999/xlink" x="0px" y="0px"
	 width="100%" viewBox="0 0 1024 1024" enable-background="new 0 0 1024 1024" xml:space="preserve">
<path fill="#000000" opacity="1.000000" stroke="none" 
	d="
M317.413208,812.868530 
	C306.571686,808.140015 296.871704,802.565308 290.973053,792.166504 
	C289.833008,790.156799 287.720795,789.390991 285.804688,788.396057 
	C277.028442,783.838928 269.656921,777.832031 265.339539,768.645935 
	C264.173126,766.164185 262.107910,764.429993 260.084290,762.693665 
	C258.560425,761.386230 257.456268,759.730774 258.469360,757.893494 
	C260.678802,753.886414 257.876434,752.354980 255.212631,750.960999 
	C244.196793,745.196106 232.684616,744.130676 220.886856,748.115295 
	C214.254944,750.355164 207.728287,752.883606 200.805740,754.143677 
	C190.488617,756.021545 179.576248,750.154541 175.783737,740.334961 
	C172.269119,731.234619 172.003952,721.726685 173.810165,712.279358 
	C174.892120,706.620422 175.293961,701.089844 174.377090,695.427673 
	C173.679688,691.120789 173.488907,686.719421 174.315384,682.483398 
	C175.796875,674.889832 174.164383,667.891785 171.037704,661.128113 
	C166.324966,650.933472 162.569962,640.522156 161.610565,629.195068 
	C160.929642,621.155640 157.715179,613.704041 155.041275,606.209778 
	C151.649963,596.704712 151.156387,587.127563 152.070541,577.221313 
	C152.884689,568.398804 153.970581,559.767578 157.563431,551.501221 
	C160.558655,544.609985 161.737534,537.113708 163.235992,529.768372 
	C169.298325,500.051147 180.166641,472.036011 192.555298,444.458496 
	C202.722122,421.826813 211.731277,398.699615 219.896332,375.235443 
	C223.052933,366.164185 227.912659,357.685303 232.002258,348.939240 
	C233.272141,346.223419 235.364761,343.614990 235.710938,340.789520 
	C237.981522,322.256653 249.594604,307.049652 253.651169,289.033264 
	C255.914520,278.981079 263.459290,270.995392 271.792633,264.543732 
	C274.082062,262.771210 276.037170,260.955719 277.422363,258.367981 
	C280.598755,252.434158 285.456909,247.768738 289.868256,242.811020 
	C294.575439,237.520828 297.873779,231.488632 301.255798,225.325943 
	C308.340637,212.416016 313.134155,197.839432 324.203430,187.612411 
	C338.185852,174.693924 351.637238,160.988754 368.830292,151.964508 
	C374.317627,149.084335 377.046387,143.367142 380.287598,138.343872 
	C386.225037,129.141907 393.540161,121.624214 404.408539,118.465027 
	C409.518494,116.979683 414.652832,115.906448 420.109528,116.615921 
	C429.338318,117.815842 438.604462,116.530144 445.826630,110.816551 
	C454.318268,104.098709 463.734985,102.685425 473.534698,103.658058 
	C486.399475,104.934906 497.977692,101.377342 509.291687,96.321899 
	C517.966675,92.445656 526.950745,92.171799 536.132324,92.488014 
	C556.009949,93.172600 573.886353,101.449356 592.358826,107.393265 
	C597.061707,108.906517 601.147766,111.834167 604.954407,115.263290 
	C612.303101,121.883148 620.744751,126.910431 630.145996,130.192276 
	C630.460327,130.302017 630.784363,130.472000 631.102722,130.469528 
	C648.485596,130.334244 663.400269,140.202774 680.252136,142.538452 
	C689.879639,143.872833 698.067078,149.803284 706.711243,154.049515 
	C711.364868,156.335480 715.950989,158.688477 720.984192,159.917587 
	C724.263123,160.718277 726.724976,162.761841 728.881836,164.972519 
	C737.222839,173.521652 746.651611,181.530197 751.420044,192.617523 
	C754.916931,200.748077 759.173767,208.129761 764.915527,214.567474 
	C771.988647,222.498108 779.031067,230.466339 786.173584,238.314560 
	C791.152039,243.784912 798.191711,247.160416 805.974854,248.083511 
	C814.973511,249.150742 821.580750,253.468353 826.413025,261.460510 
	C832.609985,271.709656 836.368896,282.859833 840.175110,294.022308 
	C842.558533,301.012054 845.017395,307.864471 849.954102,313.529419 
	C853.237122,317.296814 853.774597,322.085663 855.380493,326.570679 
	C860.988342,342.232208 857.184753,357.478088 855.241455,372.903839 
	C854.977966,374.995575 855.340515,377.235901 855.774048,379.332825 
	C857.163940,386.054230 855.590088,391.655701 849.406738,395.084412 
	C846.137573,396.897186 845.308411,399.461395 844.926941,402.782501 
	C844.413208,407.254120 843.513733,411.701630 844.426758,416.190979 
	C844.770691,417.882019 844.948181,420.603790 847.266785,420.208954 
	C851.483154,419.490936 851.492859,422.169159 851.968140,424.833099 
	C854.758972,440.477020 857.690552,456.096924 860.340332,471.764526 
	C862.841675,486.554871 868.207153,500.843872 869.235352,515.797363 
	C870.002686,526.957336 872.440430,537.840942 873.156982,548.959534 
	C873.295105,551.102234 873.484497,553.415771 874.377014,555.307556 
	C880.321533,567.906738 878.868530,581.339966 879.128662,594.593567 
	C879.311890,603.928772 880.565491,613.142456 882.819946,622.195801 
	C884.386414,628.486084 884.647217,634.620178 882.376953,640.844116 
	C877.982544,652.891357 874.194458,665.159058 869.220947,676.996155 
	C866.958008,682.382019 865.108643,687.801636 864.605957,693.754150 
	C863.896790,702.150757 858.631531,708.814880 855.010498,716.083374 
	C854.673279,716.760315 853.855774,717.488770 853.142334,717.642944 
	C844.937866,719.416199 842.177795,726.576233 838.160278,732.534485 
	C834.716309,737.642151 831.036499,742.513916 826.187805,746.499146 
	C822.476440,749.549622 819.538696,753.432373 816.406250,757.119202 
	C807.159607,768.002136 796.254089,776.877441 782.786743,782.211426 
	C779.227661,783.621094 775.506348,784.734985 772.153992,786.533508 
	C752.423706,797.118347 731.000793,796.044983 709.705505,795.745911 
	C707.291504,795.711975 704.668518,794.979309 702.526672,793.845215 
	C693.340820,788.981018 683.385986,788.664917 673.404846,788.585571 
	C665.667236,788.523987 658.680176,785.707336 651.899536,782.656494 
	C642.365845,778.366821 633.844116,780.104065 625.317444,785.135620 
	C617.882690,789.522888 610.060913,790.499023 601.889709,787.020691 
	C600.399353,786.386230 598.657166,786.029480 597.039673,786.056213 
	C581.051636,786.321045 565.032410,786.875854 549.635254,791.639160 
	C540.742371,794.390198 532.020813,797.626526 522.892090,799.651367 
	C516.955322,800.968262 512.890259,806.059387 507.146667,808.142761 
	C501.916351,810.039978 496.649292,811.365723 491.180115,811.966309 
	C481.916351,812.983643 472.644806,813.948181 463.361603,814.764954 
	C454.602509,815.535522 446.362122,814.847168 438.579163,809.494934 
	C431.872040,804.882690 423.509583,806.639709 415.768372,806.245789 
	C402.894897,805.590576 390.901337,809.954651 378.544678,812.326660 
	C368.730255,814.210693 358.724762,814.596741 348.726013,814.577087 
	C348.227539,814.576111 347.681274,814.467712 347.237488,814.629456 
	C337.182190,818.294250 327.551849,814.584961 317.413208,812.868530 
M531.981628,353.628784 
	C546.842773,384.917145 561.554199,416.278290 576.697998,447.429260 
	C579.548401,453.292603 578.769287,457.404022 574.941833,462.285736 
	C558.398376,483.386292 542.051147,504.642548 525.791626,525.963501 
	C500.340363,559.337646 475.017303,592.809570 449.640381,626.240479 
	C445.253784,632.019226 440.869843,637.799988 436.544312,643.501160 
	C438.159668,645.499634 439.930176,645.019653 441.524597,645.021912 
	C460.352325,645.048767 479.180634,644.968628 498.007446,645.103088 
	C501.812775,645.130249 504.032532,643.498169 506.183929,640.543091 
	C533.438538,603.106689 560.770203,565.726196 588.177185,528.401184 
	C593.558411,521.072632 598.628296,513.469727 604.745911,506.828766 
	C607.732971,507.772278 608.548889,510.082001 609.584290,512.091736 
	C613.929810,520.526245 618.333862,528.935303 622.454163,537.480164 
	C639.017029,571.828796 655.696411,606.118652 672.887512,640.159424 
	C674.529297,643.410461 676.342896,644.855591 680.063171,644.838867 
	C701.893188,644.740845 723.724060,644.873840 745.554688,644.874023 
	C747.117432,644.874084 748.931458,645.403748 750.348633,643.487793 
	C749.752869,642.104675 749.166321,640.576416 748.452637,639.110046 
	C726.880798,594.783020 705.295044,550.462830 683.714722,506.139923 
	C674.820557,487.872620 666.088257,469.523987 656.958618,451.375214 
	C653.826355,445.148560 653.950989,440.299927 658.657837,434.693481 
	C679.541138,409.818756 700.092407,384.664307 720.657349,359.524017 
	C724.557922,354.755554 729.265686,350.532623 732.393005,344.582092 
	C727.214600,343.494598 722.735657,343.458649 718.255493,343.380768 
	C703.094360,343.117218 687.938721,344.725281 672.790344,343.691742 
	C668.434570,343.394562 665.574219,344.718170 663.008972,348.126587 
	C653.393555,360.902618 643.598816,373.543762 633.866333,386.231689 
	C629.912231,391.386536 628.690918,391.215790 626.030884,385.443115 
	C621.713196,376.073273 617.428833,366.683655 612.879211,357.425812 
	C593.930847,318.868042 574.834778,280.382721 555.974487,241.782074 
	C554.314758,238.385208 552.410706,237.201965 548.758423,237.227539 
	C526.761169,237.381546 504.761627,237.442932 482.764984,237.268188 
	C478.477081,237.234146 476.201660,238.727219 474.323608,242.526733 
	C458.755798,274.021484 442.935394,305.391266 427.319794,336.862549 
	C399.483551,392.962982 371.694855,449.087067 343.966675,505.240967 
	C322.138062,549.447327 300.416595,593.706726 278.711548,637.973938 
	C277.671661,640.094666 275.812836,642.142273 276.757568,644.924011 
	C277.272217,645.140198 277.719940,645.492554 278.167938,645.492859 
	C302.160461,645.511230 326.153076,645.520264 350.145538,645.469788 
	C353.694733,645.462280 355.730835,643.482361 357.210968,640.212463 
	C371.633118,608.351135 387.636566,577.248535 402.694641,545.691406 
	C403.952881,543.054565 405.683533,542.072571 408.582123,542.208740 
	C429.221161,543.177795 449.876221,542.514526 470.523376,542.725769 
	C473.824890,542.759583 475.598572,541.232178 477.162567,538.497681 
	C486.506744,522.160400 495.995789,505.906006 505.440948,489.626526 
	C508.420685,484.490723 507.813202,483.347137 501.765411,483.303406 
	C489.267487,483.213104 476.768768,483.230560 464.270447,483.192230 
	C456.938904,483.169739 449.606873,483.169312 442.276093,483.076172 
	C436.645264,483.004639 435.908356,481.859161 438.214020,476.936188 
	C439.343475,474.524567 440.605103,472.175140 441.784729,469.786652 
	C465.238983,422.298462 488.683289,374.805420 512.168579,327.332642 
	C512.998047,325.656036 513.331970,323.373779 516.635132,323.015564 
	C521.563049,332.864166 526.592896,342.916443 531.981628,353.628784 
M737.495544,358.450317 
	C732.632751,359.897369 731.536804,364.020081 731.438599,368.153778 
	C731.351501,371.816864 733.728943,374.369019 737.624878,374.549805 
	C740.855469,374.699707 744.101013,370.863556 743.635010,367.384888 
	C743.144958,363.727295 741.932190,360.292847 737.495544,358.450317 
z"/>
</svg>